<?xml version="1.0" encoding="utf-8"?>
<!-- Generator: Adobe Illustrator 23.0.1, SVG Export Plug-In . SVG Version: 6.00 Build 0)  -->
<svg version="1.1" id="Layer_1" xmlns="http://www.w3.org/2000/svg" xmlns:xlink="http://www.w3.org/1999/xlink" x="0px" y="0px"
	 viewBox="0 0 1920 1080" style="enable-background:new 0 0 1920 1080;" xml:space="preserve">
<style type="text/css">
	.st0{fill:#F6F4F8;}
	.st1{fill:#F8F4F8;}
	.st2{fill:#F0EBF1;}
	.st3{fill:#E3DDE4;}
	.st4{fill:#E7E2EA;}
	.st5{fill:#F0EDF1;}
	.st6{fill:#EDE8EE;}
	.st7{fill:#E7E0E8;}
	.st8{fill:#E0D7E2;}
	.st9{fill:#DBD2DE;}
	.st10{fill:#E3D5E2;}
	.st11{fill:#E4CBD9;}
	.st12{fill:#DEC6D4;}
	.st13{fill:#D9CBD8;}
	.st14{fill:#E6C5CF;}
	.st15{fill:#D7BDC2;}
	.st16{fill:#D2BAC0;}
	.st17{fill:#C6B3B7;}
	.st18{fill:#BEADB1;}
	.st19{fill:#C4B0B4;}
	.st20{fill:#C3ADB4;}
	.st21{fill:#CAB0B9;}
	.st22{fill:#D8BAC1;}
	.st23{fill:#DBBBCA;}
	.st24{fill:#BCA9AE;}
	.st25{fill:#BEA5AF;}
	.st26{fill:#CAACB7;}
	.st27{fill:#CFACB9;}
	.st28{fill:#D5B3C4;}
	.st29{fill:#D3ADC1;}
	.st30{fill:#D4B2C7;}
	.st31{fill:#D2BECF;}
	.st32{fill:#D4C6D4;}
	.st33{fill:#E2D2DE;}
	.st34{fill:#DFCBD9;}
	.st35{fill:#D7BFD0;}
	.st36{fill:#E6CCD9;}
	.st37{fill:#E0C5D3;}
	.st38{fill:#D8BBCB;}
	.st39{fill:#D4B4C6;}
	.st40{fill:#D4ACC3;}
	.st41{fill:#D3A1B9;}
	.st42{fill:#CF98AF;}
	.st43{fill:#C699AB;}
	.st44{fill:#CCA1B2;}
	.st45{fill:#BC99A8;}
	.st46{fill:#B79EA7;}
	.st47{fill:#B5919F;}
	.st48{fill:#BB90A3;}
	.st49{fill:#B88A9E;}
	.st50{fill:#AF8596;}
	.st51{fill:#C48EA3;}
	.st52{fill:#C88FA5;}
	.st53{fill:#D19FB6;}
	.st54{fill:#D2AABE;}
	.st55{fill:#CFABBA;}
	.st56{fill:#D5B6BF;}
	.st57{fill:#E2C1CB;}
	.st58{fill:#E4C4CB;}
	.st59{fill:#DABFC4;}
	.st60{fill:#D4BCC1;}
	.st61{fill:#CFB4BC;}
	.st62{fill:#C4ACB5;}
	.st63{fill:#C4A4B2;}
	.st64{fill:#C098A9;}
	.st65{fill:#C18CA0;}
	.st66{fill:#B48497;}
	.st67{fill:#A57F8E;}
	.st68{fill:#A7808E;}
	.st69{fill:#A37E8C;}
	.st70{fill:#997B85;}
	.st71{fill:#B08494;}
	.st72{fill:#B38B9B;}
	.st73{fill:#B797A4;}
	.st74{fill:#B7A1A8;}
	.st75{fill:#BEAAB0;}
	.st76{fill:#C6B4B7;}
	.st77{fill:#D0B9BE;}
</style>
<g>
	<polygon class="st0" points="0,0 0,40.5 32.3,57.6 103.3,0 	"/>
	<polygon class="st0" points="32.3,57.6 0,57.6 0,40.5 	"/>
	<polygon class="st1" points="0,57.6 32.3,57.6 0,131.1 	"/>
	<polygon class="st2" points="32.3,57.6 197.9,407.2 0,352.8 0,131.1 	"/>
	<polygon class="st3" points="32.3,57.6 369.5,336.2 197.9,407.2 	"/>
	<polygon class="st4" points="32.3,57.6 425.4,120.6 369.5,336.2 	"/>
	<polygon class="st5" points="32.3,57.6 103.3,0 305.9,0 425.4,120.6 	"/>
	<polygon class="st6" points="305.9,0 405.8,0 425.4,120.6 	"/>
	<polygon class="st7" points="405.8,0 425.4,120.6 641.1,0 	"/>
	<polygon class="st8" points="425.4,120.6 641.1,0 656.4,0 771.6,249.6 	"/>
	<polygon class="st9" points="425.4,120.6 771.6,249.6 369.5,336.2 	"/>
	<polygon class="st10" points="0,352.8 197.9,407.2 0,500.5 	"/>
	<polygon class="st11" points="197.9,407.2 0,500.5 0,614.6 171,725.2 	"/>
	<polygon class="st12" points="197.9,407.2 566.5,519.2 171,725.2 	"/>
	<polygon class="st13" points="197.9,407.2 369.5,336.2 566.5,519.2 	"/>
	<polygon class="st14" points="171,725.2 0,795.7 0,614.6 	"/>
	<polygon class="st15" points="171,725.2 0,952.6 0,795.7 	"/>
	<polygon class="st16" points="171,725.2 268.5,959.5 0,1051.4 0,952.6 	"/>
	<polygon class="st17" points="0,1051.4 268.5,959.5 207.9,1080 0,1080 	"/>
	<polygon class="st18" points="207.9,1080 361.5,1080 371.5,1051.4 213.6,1068.6 	"/>
	<polygon class="st19" points="268.5,959.5 371.5,1051.4 213.6,1068.6 	"/>
	<polygon class="st20" points="268.5,959.5 492.8,1006.5 371.5,1051.4 	"/>
	<polygon class="st21" points="268.5,959.5 492.8,1006.5 521.2,763.9 	"/>
	<polygon class="st22" points="171,725.2 268.5,959.5 521.2,763.9 	"/>
	<polygon class="st23" points="171,725.2 566.5,519.2 521.2,763.9 	"/>
	<polygon class="st24" points="371.5,1051.4 361.5,1080 530.8,1080 492.8,1006.5 	"/>
	<polygon class="st25" points="492.8,1006.5 530.8,1080 591.6,1080 721.8,874.1 	"/>
	<polygon class="st26" points="492.8,1006.5 521.2,763.9 721.8,874.1 	"/>
	<polygon class="st27" points="521.2,763.9 805.3,763.9 721.8,874.1 	"/>
	<polygon class="st28" points="521.2,763.9 566.5,519.2 805.3,763.9 	"/>
	<polygon class="st29" points="566.5,519.2 917.6,734.1 805.3,763.9 	"/>
	<polygon class="st30" points="566.5,519.2 917.6,734.1 1009.5,406.5 	"/>
	<polygon class="st31" points="566.5,519.2 1009.5,406.5 771.6,249.6 	"/>
	<polygon class="st32" points="566.5,519.2 771.6,249.6 369.5,336.2 	"/>
	<polygon class="st33" points="771.6,249.6 915.6,0 656.4,0 	"/>
	<polygon class="st34" points="771.6,249.6 915.6,0 960,0 946.1,247 	"/>
	<polygon class="st35" points="771.6,249.6 946.1,247 1009.5,406.5 	"/>
	<polygon class="st36" points="946.1,247 960,0 1055,0 	"/>
	<polygon class="st37" points="946.1,247 1055,0 1107.4,0 1159.2,285.9 	"/>
	<polygon class="st38" points="946.1,247 1159.2,285.9 1009.5,406.5 	"/>
	<polygon class="st39" points="1009.5,406.5 1159.2,285.9 1098.8,509.4 	"/>
	<polygon class="st40" points="1009.5,406.5 1098.8,509.4 917.6,734.1 	"/>
	<polygon class="st41" points="1098.8,509.4 1337.2,647.8 917.6,734.1 	"/>
	<polygon class="st42" points="917.6,734.1 1337.2,647.8 1190.9,908 	"/>
	<polygon class="st43" points="917.6,734.1 1190.9,908 1075.7,972.3 	"/>
	<polygon class="st44" points="805.3,763.9 917.6,734.1 1075.7,972.3 721.8,874.1 	"/>
	<polygon class="st45" points="721.8,871.7 1075.7,972.3 1029.1,1080 920.8,1080 	"/>
	<polygon class="st46" points="721.8,871.7 920.8,1080 591.6,1080 	"/>
	<polygon class="st47" points="1075.7,972.3 1029.1,1080 1101.6,1080 	"/>
	<polygon class="st48" points="1075.7,972.3 1101.6,1080 1110.3,1080 1190.9,908 	"/>
	<polygon class="st49" points="1110.3,1080 1159.2,1080 1400.6,994 1190.9,908 	"/>
	<polygon class="st50" points="1159.2,1080 1400.6,994 1406.9,1080 	"/>
	<polygon class="st51" points="1190.9,908 1400.6,994 1337.2,647.8 	"/>
	<polygon class="st52" points="1400.6,994 1462.8,584.5 1337.2,647.8 	"/>
	<polygon class="st53" points="1098.8,509.4 1337.2,647.8 1462.8,584.5 	"/>
	<polygon class="st54" points="1098.8,509.4 1462.8,584.5 1159.2,285.9 	"/>
	<polygon class="st55" points="1159.2,285.9 1462.8,584.5 1546.3,332.1 	"/>
	<polygon class="st56" points="1159.2,285.9 1546.3,332.1 1568.8,124.7 	"/>
	<polygon class="st57" points="1159.2,285.9 1568.8,124.7 1297.5,0 1107.4,0 	"/>
	<polygon class="st58" points="1297.5,0 1568.8,124.7 1503.7,0 	"/>
	<polygon class="st59" points="1503.7,0 1568.8,124.7 1586,0 	"/>
	<polygon class="st60" points="1586,0 1663.8,0 1686.3,118 1568.8,124.7 	"/>
	<polygon class="st61" points="1568.8,124.7 1686.3,118 1546.3,332.1 	"/>
	<polygon class="st62" points="1686.3,118 1546.3,332.1 1834.3,402.6 	"/>
	<polygon class="st63" points="1546.3,332.1 1834.3,402.6 1462.8,584.5 	"/>
	<polygon class="st64" points="1462.8,584.5 1834.3,402.6 1782.5,697.5 	"/>
	<polygon class="st65" points="1462.8,584.5 1782.5,697.5 1400.6,994 	"/>
	<polygon class="st66" points="1782.5,697.5 1815.3,853.1 1400.6,994 	"/>
	<polygon class="st67" points="1400.6,994 1815.3,853.1 1793.4,1080 1532.5,1080 	"/>
	<polygon class="st68" points="1400.6,994 1532.5,1080 1406.9,1080 	"/>
	<polygon class="st69" points="1815.3,853.1 1920,851 1920,875.3 1835.5,1080 1793.4,1080 	"/>
	<polygon class="st70" points="1835.5,1080 1920,875.3 1920,1080 	"/>
	<polygon class="st71" points="1782.5,697.5 1815.3,853.1 1920,851 1920,751.4 	"/>
	<polygon class="st72" points="1782.5,697.5 1920,751.4 1920,569 	"/>
	<polygon class="st73" points="1782.5,697.5 1920,569 1920,444.6 1834.3,402.6 	"/>
	<polygon class="st74" points="1834.3,402.6 1920,444.6 1920,321.7 	"/>
	<polygon class="st75" points="1834.3,402.6 1920,321.7 1920,175 1686.3,118 	"/>
	<polygon class="st76" points="1686.3,118 1920,175 1920,0 1736.4,0 	"/>
	<polygon class="st77" points="1663.8,0 1686.3,118 1736.4,0 	"/>
</g>
</svg>
